<?xml version="1.0" encoding="utf-8"?>
<!-- Generator: Adobe Illustrator 24.0.1, SVG Export Plug-In . SVG Version: 6.00 Build 0)  -->
<svg version="1.1" id="Capa_2_1_" xmlns="http://www.w3.org/2000/svg" xmlns:xlink="http://www.w3.org/1999/xlink" x="0px" y="0px"
	 viewBox="0 0 87 27.5" style="enable-background:new 0 0 87 27.5;" xml:space="preserve">
<style type="text/css">
	.st0{fill:#E84766;}
	.st1{fill:#FFFFFF;}
	.st2{fill:#1D1D1B;}
	.st3{font-family:'Roboto-Black';}
	.st4{font-size:10.2561px;}
</style>
<title>logo</title>
<g>
	<path class="st0" d="M14.7,23.9c-0.2,0.4-0.2,0.8-0.2,1.2c0.1,0.5,0.5,0.8,0.9,0.8c0.2,0,0.5,0,0.8-0.1c0.2-0.1,0.5-0.2,0.8-0.3
		c0.5-0.5,0-1.1-0.5-1.3c-0.5-0.2-1-0.3-1.4-0.1c-0.5,0.2-0.9,0.6-0.6,1.1c0.2,0.5,0.8,0.6,1.3,0.4c0.2-0.1,0.5-0.2,0.7-0.4
		c0.2-0.2,0.5-0.4,0.5-0.7c0-0.6-0.8-0.8-1.2-0.8c-0.5-0.1-1.1,0.2-1.2,0.8c-0.1,0.5,0.5,1,0.9,0.8c0.5-0.2,0.7-0.8,0.4-1.3
		s-1-0.5-1.3-0.1c-0.4,0.5,0.1,1,0.5,1.2c0.5,0.2,1.1,0.2,1.7,0.1c0.5-0.1,1.2-0.3,1.4-0.8c0.4-0.6-0.3-1.2-0.9-1.1
		c-0.3,0-0.6,0.2-0.8,0.4c-0.2,0.2-0.5,0.4-0.5,0.8c0,0.6,0.6,0.8,1.1,0.8c0.7-0.1,1.3-0.3,1.7-0.8c0.2-0.2,0.1-0.6-0.2-0.8
		c-0.8-0.3-1.8,0-2.2,0.8c-0.2,0.2-0.1,0.5,0.2,0.6c0.7,0.4,1.4,0.2,2.1-0.2c0.6-0.5,1-1.1,1.6-1.4l-0.2,0.1c-0.2,0-0.2-0.2-0.2-0.3
		c0,0.1,0,0.1,0,0v0.1c0,0-0.2,0.2-0.3,0.2c-0.2,0.2-0.5,0.5-0.8,0.6c-0.5,0.4-1.1,0.7-1.7,0.8c-0.9,0.2-2.1-0.2-2.4-1.2l-0.9,0.2
		c0.5,1.2,1.7,1.7,2.9,1.8c1.4,0.1,2.9-0.6,4.1-1.3c0.7-0.4,1.3-0.9,1.1-1.7c-0.1-0.2-0.4-0.4-0.6-0.3s-0.4,0.3-0.3,0.6
		c0,0.1,0,0.2-0.1,0.2c-0.1,0.1-0.2,0.2-0.2,0.2c-0.3,0.2-0.6,0.4-0.9,0.5c-0.7,0.4-1.4,0.7-2.1,0.8c-0.6,0.2-1.2,0.1-1.8-0.1
		c-0.5-0.2-0.9-0.5-1.1-1c-0.2-0.5-1.1-0.4-0.9,0.2c0.2,0.8,0.9,1.4,1.7,1.7c0.8,0.3,1.7,0.2,2.6-0.1c0.9-0.4,1.7-1,2.4-1.7
		c0.3-0.3,0.5-0.8,0.2-1.1c-0.2-0.2-0.4-0.3-0.7-0.2c-0.2,0.1-0.5,0.3-0.6,0.5c-0.4,0.3-0.7,0.8-1.1,1.1c-0.3,0.2-0.8,0.5-1.2,0.2
		c0.1,0.2,0.1,0.4,0.2,0.6c0.2-0.5,0.8-0.5,1.2-0.4c-0.1-0.2-0.2-0.5-0.2-0.8c-0.3,0.3-0.8,0.6-1.3,0.5c-0.1,0-0.2,0-0.2-0.1
		c0.2-0.1,0.1,0.2,0.1,0.2v0.1l0.1-0.1c0.2-0.1,0.3-0.4,0.5-0.3h0.1c0,0,0-0.1,0-0.2l-0.2,0.2c-0.2,0.2-0.5,0.2-0.8,0.2
		c-0.2,0.1-0.5,0.1-0.8,0c-0.1,0-0.2,0-0.3-0.1c0,0-0.2-0.1-0.2-0.1c0,0,0,0.2,0,0.2l0,0c0-0.1,0,0.1,0,0.1s0.1-0.1,0.2-0.1v0.1
		c0,0,0.2-0.1,0.2-0.1c0.2,0,0.3,0,0.4,0l0.3,0.1l0,0c0-0.1,0-0.1,0-0.2L16,24.6c-0.2,0.2-0.3,0.3-0.5,0.3c-0.1,0-0.2,0-0.2-0.1
		c-0.1-0.1,0-0.1-0.1,0c0.1-0.2,0.4-0.2,0.5-0.2c0.2,0,0.5,0,0.7,0.2c0.1,0,0.1,0.1,0.2,0.1c0,0,0,0.1,0.1,0.1c0-0.1,0-0.1-0.1,0
		c-0.2,0.1-0.3,0.2-0.4,0.2c-0.2,0.1-0.5,0.2-0.8,0c-0.5-0.2-0.2-0.9-0.2-1.3C15.1,23.8,14.8,23.7,14.7,23.9L14.7,23.9z"/>
	<path class="st1" d="M6.3,8.3c0.1-0.1,0.2-0.2,0.2-0.4c0.1-0.2,0.2-0.3,0.2-0.5c0.1-0.2,0.2-0.5,0.4-0.8c0.3-0.5,0.7-1.1,1.1-1.6
		c0.2-0.2,0.5,0,0.7,0.2C9.1,5.6,9.4,5.8,9.7,6c0.5,0.5,1.1,1,1.6,1.4C11.6,7.8,12,7.3,11.7,7c-0.6-0.5-1.2-1.1-1.8-1.7
		C9.4,4.9,8.8,4,8.1,4.5C7.8,4.6,7.6,5,7.5,5.2c-0.2,0.3-0.4,0.6-0.5,1c-0.2,0.3-0.3,0.6-0.5,1C6.4,7.5,6.2,7.9,6.3,8.3
		C6.2,8.3,6.3,8.3,6.3,8.3L6.3,8.3L6.3,8.3z"/>
	<path class="st1" d="M11.5,7.3c0.4,0.1,0.8,0,1.1,0s0.8-0.1,1.1-0.1c0.8-0.1,1.5-0.1,2.3-0.2c1.5-0.2,3.1-0.2,4.6-0.4
		c0.2,0,0.2-0.5,0-0.4c-1.5,0.2-3,0.3-4.6,0.5L13.8,7l-1.1,0.1C12.3,7.1,11.9,7.1,11.5,7.3C11.4,7.1,11.4,7.3,11.5,7.3L11.5,7.3z"/>
	<path class="st1" d="M20.6,6.5c0.2-0.3,0.2-0.6,0.3-0.8c0.1-0.3,0.2-0.7,0.3-1c0.2-0.6,0.5-1.3,0.7-1.9c0.1-0.2-0.2-0.4-0.4-0.2
		c-0.3,0.6-0.4,1.3-0.6,2c-0.1,0.3-0.2,0.6-0.2,1c-0.1,0.4-0.2,0.6-0.2,0.9C20.5,6.5,20.5,6.6,20.6,6.5C20.5,6.6,20.6,6.6,20.6,6.5
		L20.6,6.5z"/>
	<path class="st1" d="M21.5,2.7C21.6,3,21.8,3,22.1,3.2s0.5,0.3,0.7,0.5C23.2,4,23.6,4.4,24,4.8c0.8,0.7,1.4,1.5,1.7,2.5
		c0.1,0.2,0.6,0.2,0.5-0.2c-0.4-1.1-1.1-1.9-1.9-2.7c-0.5-0.4-0.9-0.7-1.4-1c-0.2-0.2-0.5-0.3-0.8-0.5c-0.2-0.2-0.5-0.3-0.8-0.4
		C21.5,2.5,21.4,2.7,21.5,2.7L21.5,2.7z"/>
	<path class="st1" d="M6.6,7.4c-1.6,2.7-2.2,6.3-1.4,9.3c0.5,1.6,1.2,3.1,2.4,4.3c1.2,1.2,2.7,2.1,4.3,2.6c3.2,1.1,6.8,0.9,10-0.5
		c2.7-1.2,5.2-3.5,6.4-6.3c1.4-3.2,0.4-6.8-1.5-9.6c-0.2-0.4-0.5-0.7-0.8-1.1c-0.2-0.3-0.8,0.1-0.5,0.5c0.9,1.4,1.7,2.7,2.3,4.3
		c0.5,1.4,0.6,3,0.2,4.5c-0.4,1.4-1.1,2.7-2.1,3.8c-0.9,1.1-2.1,2-3.3,2.7c-2.8,1.5-6.2,1.9-9.2,1.2c-1.5-0.4-3-1-4.3-1.9
		c-1.3-0.9-2.3-2.2-2.9-3.6c-1.2-3-0.8-6.2,0.2-9.1c0.2-0.4,0.2-0.7,0.4-1.1C6.7,7.4,6.6,7.3,6.6,7.4L6.6,7.4z"/>
	<path class="st1" d="M19.9,6.2c-0.2,0.1-0.4,0.2-0.5,0.2c-1.8,0.6-4,0.6-5.9,0.5c-2.2-0.1-2.9,0-4.1-1.7C9.1,4.9,8.6,4.6,8.2,4.9
		C8,4.9,7.9,5.1,7.8,5.3C7,6.5,6.7,8,6.5,9.4c-0.5,2.6-0.8,5.2-0.2,7.8c0.6,2.6,2.3,5.1,4.9,6.2c0.8,0.3,1.6,0.5,2.4,0.6
		c3,0.5,6.3,0.2,9-1.1s5-3.6,5.8-6.4c0.5-2.1,0.2-4.4-0.7-6.4c-0.9-2.1-2.3-3.9-3.8-5.5c-0.6-0.6-1.6-1.9-2.4-1.2
		C20.3,4.4,21.3,5.6,19.9,6.2z"/>
	<path class="st2" d="M22.3,9.7C21.9,10,22,10.6,22.2,11c0.2,0.2,0.4,0.2,0.5,0c0.2-0.4,0.2-0.8,0.1-1.2c-0.1-0.3-0.5-0.3-0.6-0.1
		c-0.3,0.4-0.3,0.8,0,1.2c0.2,0.2,0.3,0.2,0.5,0.2c0.2-0.1,0.2-0.4,0.2-0.5c-0.2-0.2-0.2-0.3-0.1-0.5l-0.5,0.1
		c0.2,0.2,0.1,0.5,0,0.6l0.5-0.2c-0.3-0.2-0.2-0.5-0.2-0.8C22.5,9.7,22.4,9.7,22.3,9.7L22.3,9.7z"/>
	<path class="st2" d="M8.7,10.7c-0.2,0.3-0.1,0.7,0.1,1c0.1,0.1,0.2,0.2,0.3,0.1c0.3-0.1,0.5-0.3,0.6-0.6c0.1-0.3,0-0.6-0.3-0.8
		C9.1,10.3,8.8,10.4,8.7,10.7c-0.3,0.3-0.2,0.7,0,1c0.1,0.2,0.3,0.2,0.5,0.2c0.5-0.1,0.6-0.7,0.3-1c-0.3-0.4-0.9,0.2-0.5,0.5
		c-0.1,0-0.1-0.1-0.1-0.2s0-0.1,0,0c0,0,0.1-0.1,0.1-0.2l0.5,0.2c0-0.1-0.1-0.1-0.1-0.2V11l0,0c0.1-0.1,0,0,0,0l-0.1-0.1V11
		c-0.1,0.1-0.1,0.2-0.2,0.2h0.3c-0.2-0.2-0.2-0.4-0.3-0.7c0-0.1-0.1-0.1-0.1-0.1C8.8,10.6,8.7,10.6,8.7,10.7L8.7,10.7z"/>
	<path class="st0" d="M16.5,15.1c-0.3,0.6-0.3,1.2-0.1,1.8c0.1,0.2,0.2,0.2,0.4,0.2c0.4-0.2,0.5-0.6,0.6-1c0.1-0.4-0.1-0.8-0.3-1.1
		c-0.2-0.2-0.5-0.2-0.6,0c-0.3,0.7-0.4,1.5,0,2.2c0.2,0.3,0.7,0.1,0.6-0.2c-0.2-0.5-0.2-1.1,0-1.6l-0.5,0.1c0.2,0.2,0.2,0.5,0.2,0.7
		c0,0.3-0.2,0.5-0.3,0.7l0.4-0.1c-0.4-0.4-0.3-1.1-0.1-1.5C16.7,15.1,16.6,15.1,16.5,15.1L16.5,15.1z"/>
	<path class="st2" d="M16,13.6c0.1,0.2,0.2,0.5,0.2,0.7S16.1,14.8,16,15c-0.2,0.2-0.3,0.3-0.6,0.3c-0.2,0-0.4,0-0.5-0.2
		c-0.2-0.5-0.8-0.2-0.7,0.2c0.3,0.9,1.6,0.8,2.1,0.2c0.2-0.3,0.4-0.8,0.3-1.1c0-0.2-0.1-0.4-0.2-0.5c-0.1-0.1-0.1-0.2-0.2-0.2
		c-0.1-0.1-0.2-0.1-0.2-0.2C16,13.5,15.9,13.5,16,13.6L16,13.6z"/>
	<path class="st2" d="M16.3,13.8c-0.2,0.3,0,0.8,0.2,1.1c0.3,0.4,0.7,0.6,1.1,0.6c1,0,1.6-1,1.5-1.9c-0.1-0.5-0.8-0.3-0.7,0.2
		c0.1,0.5-0.3,1.1-0.8,1.1c-0.3,0.1-0.6,0-0.8-0.2s-0.3-0.5-0.3-0.8C16.4,13.8,16.4,13.8,16.3,13.8L16.3,13.8L16.3,13.8z"/>
	<path class="st2" d="M16.5,13c-0.3-0.3-0.8-0.2-1.1,0.1c-0.4,0.5,0.2,1,0.7,1.1c0.5,0,0.9-0.5,0.7-1c-0.2-0.3-0.5-0.2-0.8-0.2
		c-0.3,0.1-0.5,0.2-0.8,0.5c-0.2,0.2-0.1,0.5,0.2,0.6c0.2,0.1,0.5,0.1,0.8-0.1c0.2-0.2,0.2-0.3,0.2-0.5c-0.1-0.2-0.3-0.2-0.5-0.2
		c-0.1,0.1-0.2,0.1-0.2,0.1l0.2,0.6c0.2-0.2,0.5-0.4,0.8-0.4l-0.3-0.1c0.1,0.1,0,0,0,0c0,0.1,0,0,0,0.1l-0.1,0.1
		c-0.2,0.1-0.4-0.2-0.4-0.3v0.2c0.1-0.2,0.5-0.3,0.6-0.2C16.5,13.2,16.6,13.1,16.5,13L16.5,13z"/>
	<path class="st1" d="M13.6,23.6c-0.3,0.6-0.1,1.3,0.3,1.7c0.5,0.6,1.3,0.8,2.1,0.9c1.4,0.2,3-0.4,4.1-1.2c0.6-0.5,1.1-1.1,1.5-1.7
		c0.2-0.4-0.4-0.7-0.5-0.3c-0.6,1.1-1.5,1.8-2.6,2.4c-0.5,0.2-1.1,0.4-1.7,0.5c-0.7,0.1-1.4,0-2-0.3s-1.1-1-0.9-1.7
		C13.8,23.6,13.6,23.5,13.6,23.6L13.6,23.6z"/>
	<path class="st2" d="M22.3,4.3c-0.2,0.5-0.2,1.1-0.4,1.7L24,6.2c-0.1-0.8-0.5-1.5-1.3-1.8L22.3,4.3z"/>
	<path class="st2" d="M7.9,7.6c0-0.6,0.1-1.1,0.2-1.7c0.1-0.2,0.2-0.4,0.4-0.4c0.5,0.5,0.8,1,1.1,1.5c0,0.1,0.1,0.1,0.1,0.2
		c0,0.1-0.1,0.2-0.2,0.2C9.1,7.6,8.7,7.8,8.3,7.6C8.2,7.5,8,7.3,7.9,7.5V7.6z"/>
	<path class="st2" d="M22.8,13.9c0.4-0.2,0.8-0.4,1.1-0.4c0.4-0.1,0.8,0,1.2,0.1c0.4,0.1,0.5-0.5,0.2-0.5c-0.9-0.2-2.1-0.1-2.7,0.6
		C22.4,13.8,22.7,14,22.8,13.9L22.8,13.9z"/>
	<path class="st2" d="M23.6,14.8c0.3,0,0.7-0.1,1-0.1c0.3,0,0.2-0.5-0.1-0.4c-0.3,0.1-0.7,0.1-1,0.2C23.4,14.5,23.4,14.8,23.6,14.8
		L23.6,14.8z"/>
	<path class="st2" d="M10.9,13.9c-0.8-0.2-1.5-0.2-2.3-0.3c-0.3,0-0.3,0.5,0,0.5c0.8,0.1,1.5,0.2,2.3,0.2C11,14.1,11,13.9,10.9,13.9
		z"/>
	<path class="st2" d="M10.4,14.9c-0.5,0.1-1.1,0.2-1.5,0.4c-0.2,0.1-0.2,0.5,0.1,0.4c0.5-0.2,1.1-0.3,1.6-0.5
		C10.7,15.1,10.5,14.8,10.4,14.9z"/>
</g>
<text transform="matrix(1 0 0 1 38.1323 18.0869)" class="st1 st3 st4">TU</text>
<text transform="matrix(1 0 0 1 57.2031 18.0879)" class="st1 st3 st4">GATO</text>
</svg>
